<svg width="316" height="540" viewBox="0 0 316 540" fill="none" xmlns="http://www.w3.org/2000/svg">
<g filter="url(#filter0_di_24_3)">
<path d="M7 68.4859L20.8542 55.7866V22.3676H65.0146L81.4665 9H304V222.213L286.682 232.907V479.54L304 494.913L262.437 529H20.8542H7V406.686L20.8542 398.666V232.907L7 228.229V68.4859Z" fill="#7DE0FF" fill-opacity="0.15" shape-rendering="crispEdges"/>
<path d="M21.1047 399.099L21.3542 398.954V398.666V232.907V232.549L21.0142 232.434L7.5 227.87V68.7058L21.1921 56.1552L21.3542 56.0066V55.7866V22.8676H65.0146H65.1921L65.3299 22.7557L81.644 9.5H303.5V221.934L286.419 232.482L286.182 232.629V232.907V479.54V479.765L286.35 479.914L303.23 494.898L262.259 528.5H20.8542H7.5V406.975L21.1047 399.099Z" stroke="#12E3FF" shape-rendering="crispEdges"/>
</g>
<defs>
<filter id="filter0_di_24_3" x="-8" y="-6" width="327" height="550" filterUnits="userSpaceOnUse" color-interpolation-filters="sRGB">
<feFlood flood-opacity="0" result="BackgroundImageFix"/>
<feColorMatrix in="SourceAlpha" type="matrix" values="0 0 0 0 0 0 0 0 0 0 0 0 0 0 0 0 0 0 127 0" result="hardAlpha"/>
<feOffset/>
<feGaussianBlur stdDeviation="7.5"/>
<feComposite in2="hardAlpha" operator="out"/>
<feColorMatrix type="matrix" values="0 0 0 0 0.0862745 0 0 0 0 0.407843 0 0 0 0 0.705882 0 0 0 1 0"/>
<feBlend mode="normal" in2="BackgroundImageFix" result="effect1_dropShadow_24_3"/>
<feBlend mode="normal" in="SourceGraphic" in2="effect1_dropShadow_24_3" result="shape"/>
<feColorMatrix in="SourceAlpha" type="matrix" values="0 0 0 0 0 0 0 0 0 0 0 0 0 0 0 0 0 0 127 0" result="hardAlpha"/>
<feOffset/>
<feGaussianBlur stdDeviation="7.5"/>
<feComposite in2="hardAlpha" operator="arithmetic" k2="-1" k3="1"/>
<feColorMatrix type="matrix" values="0 0 0 0 0.0881185 0 0 0 0 0.40887 0 0 0 0 0.704948 0 0 0 1 0"/>
<feBlend mode="hard-light" in2="shape" result="effect2_innerShadow_24_3"/>
</filter>
</defs>
</svg>
